<svg xmlns="http://www.w3.org/2000/svg" width="20" height="20" viewBox="927 12498 20 20"><path d="M927 12500.188v9.374c0 .518.42.938.938.938h3.125c.517 0 .937-.42.937-.938v-9.374a.937.937 0 0 0-.938-.938h-3.125a.937.937 0 0 0-.937.938Zm1.563 7.812a.937.937 0 1 1 1.874 0 .937.937 0 0 1-1.875 0Zm10.625 10c-.789 0-1.152-1.535-1.326-2.258-.203-.846-.414-1.721-.992-2.3-1.268-1.27-1.934-2.89-3.481-4.419a.468.468 0 0 1-.139-.333v-8.35c0-.256.205-.464.46-.469.619-.011 1.434-.354 2.057-.632 1.24-.552 2.784-1.238 4.67-1.239h.111c1.671 0 3.647.016 4.445 1.162.328.47.408 1.056.24 1.743.637.666.979 1.909.64 2.92.685.916.748 2.193.363 3.104l.005.005c.464.467.762 1.22.759 1.922-.006 1.185-1.022 2.269-2.326 2.269H940.7c.286 1.107 1.3 2.036 1.3 3.693 0 2.87-1.875 3.182-2.813 3.182Z" fill="#e1a700" fill-rule="evenodd" data-name="Icon awesome-thumbs-down"/></svg>